<?xml version="1.0" encoding="UTF-8"?>
<svg width="145px" height="22px" viewBox="0 0 145 22" version="1.1" xmlns="http://www.w3.org/2000/svg" xmlns:xlink="http://www.w3.org/1999/xlink">
    <!-- Generator: Sketch 46.2 (44496) - http://www.bohemiancoding.com/sketch -->
    <title>Page 1</title>
    <desc>Created with Sketch.</desc>
    <defs>
        <polygon id="path-1" points="144.908517 21.8625458 144.908517 0.0458791667 6.19910548e-21 0.0458791667 0 21.8625458"></polygon>
        <polygon id="path-3" points="0.183486239 21 49.8623853 21 49.8623853 0.0913956522 0.183486239 0.0913956522"></polygon>
    </defs>
    <g id="Design-R01" stroke="none" stroke-width="1" fill="none" fill-rule="evenodd">
        <g id="375-px" transform="translate(-19.000000, -64.000000)">
            <g id="Page-1" transform="translate(19.000000, 64.000000)">
                <g id="Group-3">
                    <mask id="mask-2" fill="white">
                        <use xlink:href="#path-1"></use>
                    </mask>
                    <g id="Clip-2"></g>
                    <path d="M143.261738,4.67504583 C144.176565,4.67504583 144.908883,5.40837917 144.908883,6.32504583 C144.908883,7.2417125 144.176565,7.97504583 143.261738,7.97504583 C142.346912,7.97504583 141.61505,7.2417125 141.61505,6.32504583 C141.569309,5.40837917 142.346912,4.67504583 143.261738,4.67504583 L143.261738,4.67504583 Z M143.261738,5.08754583 C142.575618,5.08754583 142.026722,5.63754583 142.026722,6.32504583 C142.026722,7.05837917 142.575618,7.60837917 143.261738,7.60837917 C143.947858,7.60837917 144.496754,7.05837917 144.496754,6.32504583 C144.496754,5.63754583 143.947858,5.08754583 143.261738,5.08754583 L143.261738,5.08754583 Z M143.033032,7.2417125 L142.621817,7.2417125 L142.621817,5.40837917 L143.261738,5.40837917 C143.76535,5.40837917 143.994057,5.5917125 143.994057,5.95837917 C143.994057,6.18754583 143.902117,6.37087917 143.67341,6.46254583 L144.039341,7.2417125 L143.581927,7.2417125 L143.261738,6.5542125 L143.07923,6.5542125 L143.07923,7.2417125 L143.033032,7.2417125 Z M143.033032,5.77504583 L143.033032,6.18754583 L143.215997,6.18754583 C143.490445,6.18754583 143.581927,6.1417125 143.581927,5.95837917 C143.581927,5.82087917 143.490445,5.77504583 143.215997,5.77504583 L143.033032,5.77504583 Z M126.932085,17.2792125 L123.821675,17.2792125 L123.821675,8.2042125 C123.821675,7.3792125 123.867874,6.64587917 123.913158,5.8667125 C125.285397,5.13337917 127.252274,4.72087917 129.17341,4.72087917 C130.54565,4.72087917 131.506218,4.99587917 132.192338,5.4542125 C133.335871,5.0417125 134.662369,4.72087917 135.989325,4.72087917 C139.968363,4.72087917 140.563457,6.87504583 140.563457,9.39587917 L140.563457,17.3250458 L137.45259,17.3250458 L137.45259,9.67087917 C137.45259,8.0667125 137.086659,7.19587917 135.303205,7.19587917 C134.799593,7.19587917 134.113473,7.33337917 133.518836,7.60837917 C133.65606,8.15837917 133.702259,8.7542125 133.702259,9.39587917 L133.702259,17.3250458 L130.591391,17.3250458 L130.591391,9.67087917 C130.591391,8.0667125 130.225461,7.19587917 128.533032,7.19587917 C127.984593,7.19587917 127.343757,7.33337917 126.932085,7.5167125 C126.886344,8.02087917 126.84106,8.6167125 126.84106,9.1667125 L126.84106,17.2792125 L126.932085,17.2792125 Z M6.12924606,2.9792125 C6.12924606,1.83337917 7.08981388,0.870879167 8.233347,0.870879167 C9.37688013,0.870879167 10.3374479,1.78754583 10.3374479,2.9792125 C10.3374479,4.12504583 9.37688013,5.08754583 8.233347,5.08754583 C7.04407256,5.08754583 6.12924606,4.12504583 6.12924606,2.9792125 L6.12924606,2.9792125 Z M-9.14826498e-05,9.07504583 C-9.14826498e-05,7.9292125 0.960476341,6.9667125 2.10400946,6.9667125 C3.24754259,6.9667125 4.20811041,7.88337917 4.20811041,9.07504583 C4.20811041,10.2208792 3.24754259,11.1833792 2.10400946,11.1833792 C0.914735016,11.1833792 -9.14826498e-05,10.2208792 -9.14826498e-05,9.07504583 L-9.14826498e-05,9.07504583 Z M12.2585836,2.9792125 C12.2585836,1.83337917 13.2191514,0.870879167 14.3626845,0.870879167 C15.5062177,0.870879167 16.4667855,1.78754583 16.4667855,2.9792125 C16.4667855,4.12504583 15.5062177,5.08754583 14.3626845,5.08754583 C13.2191514,5.08754583 12.2585836,4.12504583 12.2585836,2.9792125 L12.2585836,2.9792125 Z M-9.14826498e-05,15.1708792 C-9.14826498e-05,14.0250458 0.960476341,13.0625458 2.10400946,13.0625458 C3.24754259,13.0625458 4.20811041,13.9792125 4.20811041,15.1708792 C4.20811041,16.3167125 3.24754259,17.2792125 2.10400946,17.2792125 C0.960476341,17.2792125 -9.14826498e-05,16.3625458 -9.14826498e-05,15.1708792 L-9.14826498e-05,15.1708792 Z M12.2585836,9.07504583 C12.2585836,7.9292125 13.2191514,6.9667125 14.3626845,6.9667125 C15.5062177,6.9667125 16.4667855,7.88337917 16.4667855,9.07504583 C16.4667855,10.2208792 15.5062177,11.1833792 14.3626845,11.1833792 C13.2191514,11.1833792 12.2585836,10.2208792 12.2585836,9.07504583 L12.2585836,9.07504583 Z M6.12924606,15.1708792 C6.12924606,14.0250458 7.08981388,13.0625458 8.233347,13.0625458 C9.37688013,13.0625458 10.3374479,13.9792125 10.3374479,15.1708792 C10.3374479,16.3167125 9.37688013,17.2792125 8.233347,17.2792125 C7.04407256,17.2792125 6.12924606,16.3625458 6.12924606,15.1708792 L6.12924606,15.1708792 Z M118.012527,17.2792125 L118.012527,9.7167125 C118.012527,7.9292125 117.692795,7.19587917 115.405729,7.19587917 C114.719609,7.19587917 113.98729,7.33337917 113.392653,7.60837917 L113.392653,17.2792125 L110.282243,17.2792125 L110.282243,0.0458791667 L113.392653,0.0458791667 L113.392653,5.08754583 C114.215997,4.85837917 115.130823,4.67504583 116.182874,4.67504583 C120.665981,4.67504583 121.123394,6.78337917 121.123394,9.39587917 L121.123394,17.2792125 L118.012527,17.2792125 Z M104.976249,1.3292125 L104.976249,4.85837917 L107.492022,4.85837917 L107.492022,7.19587917 L104.976249,7.19587917 L104.976249,13.6125458 C104.976249,14.6667125 105.387921,15.0333792 106.439972,15.0333792 C106.805902,15.0333792 107.126091,15.0333792 107.492022,14.9875458 L107.720729,17.1875458 C107.034609,17.3250458 106.257464,17.4167125 105.571344,17.4167125 C102.963631,17.4167125 101.820098,16.2708792 101.820098,13.9333792 L101.820098,7.19587917 L99.7617382,7.19587917 L99.7617382,4.85837917 L101.820098,4.85837917 L101.820098,1.83337917 L104.976249,1.3292125 Z M95.370571,4.85837917 L98.5267224,4.85837917 L92.7175741,21.8625458 L89.5618801,21.8625458 L91.5282997,16.4083792 L86.4967539,4.85837917 L89.7905868,4.85837917 L92.9005394,12.5125458 L95.370571,4.85837917 Z M82.1970694,17.2792125 L82.1970694,9.7167125 C82.1970694,7.9292125 81.8768801,7.19587917 79.5898139,7.19587917 C78.903694,7.19587917 78.1718328,7.33337917 77.5771956,7.60837917 L77.5771956,17.2792125 L74.4672429,17.2792125 L74.4672429,0.0458791667 L77.5771956,0.0458791667 L77.5771956,5.08754583 C78.4005394,4.85837917 79.3153659,4.67504583 80.3674164,4.67504583 C84.8500662,4.67504583 85.3074795,6.78337917 85.3074795,9.39587917 L85.3074795,17.2792125 L82.1970694,17.2792125 Z M62.848489,17.2792125 L59.5551136,17.2792125 L59.5551136,1.3292125 C60.9730946,1.0542125 62.8942303,0.870879167 64.8611073,0.870879167 C68.4746719,0.870879167 71.4021167,1.6042125 71.4021167,5.95837917 C71.4021167,8.84587917 70.2128423,10.1750458 68.2917066,10.7708792 L71.9967539,17.2792125 L68.200224,17.2792125 L64.8611073,11.1375458 C64.1749874,11.1375458 63.4431262,11.0917125 62.848489,11.0458792 L62.848489,17.2792125 Z M62.848489,8.4792125 C63.5346088,8.57087917 64.1749874,8.57087917 64.8611073,8.57087917 C66.9194669,8.57087917 68.1087413,8.0667125 68.1087413,6.0042125 C68.1087413,4.2167125 67.2853975,3.48337917 64.9068486,3.48337917 C64.26647,3.48337917 63.4888675,3.5292125 62.8027476,3.62087917 L62.8027476,8.4792125 L62.848489,8.4792125 Z" id="Fill-1" fill="#2B72B9" mask="url(#mask-2)"></path>
                </g>
                <g id="Group-6" transform="translate(6.000000, 1.000000)">
                    <mask id="mask-4" fill="white">
                        <use xlink:href="#path-3"></use>
                    </mask>
                    <g id="Clip-5"></g>
                    <path d="M0.183486239,8.12617826 C0.183486239,9.26748261 1.14678899,10.2261783 2.29357798,10.2261783 C3.44036697,10.2261783 4.40366972,9.31313478 4.40366972,8.12617826 C4.40366972,6.98487391 3.44036697,6.02617826 2.29357798,6.02617826 C1.14678899,6.07183043 0.183486239,6.98487391 0.183486239,8.12617826 L0.183486239,8.12617826 Z M39.5412844,20.4979174 C40.8715596,20.7261783 42.8440367,21.0000913 44.7247706,21.0000913 C47.5229358,21.0000913 49.8623853,20.2240043 49.8623853,16.9822435 L49.8623853,7.25878696 C49.8623853,6.43704783 49.8165138,5.70661304 49.7706422,4.93052609 C48.3486239,4.10878696 46.4220183,3.78922174 44.7247706,3.78922174 C40.6422018,3.78922174 38.8073394,5.2500913 38.8073394,9.99791739 C38.8073394,14.6996348 40.5504587,16.206613 44.3577982,16.206613 C45.1376147,16.206613 46.0091743,16.1153087 46.7431193,15.9327 L46.7431193,16.2974609 C46.7431193,17.8044391 46.0091743,18.5800696 44.3119266,18.5800696 C42.8440367,18.5800696 41.0091743,18.3979174 39.7706422,18.2153087 L39.5412844,20.4979174 Z M44.6788991,6.16313478 C45.3669725,6.16313478 46.146789,6.25443913 46.6055046,6.4827 C46.6513761,6.98487391 46.6972477,7.57835217 46.6972477,8.12617826 L46.6972477,13.4674826 C46.1926606,13.6500913 45.5045872,13.7413957 44.9541284,13.7413957 C42.0183486,13.7413957 41.8807339,12.1435696 41.8807339,9.95226522 C41.9266055,8.03487391 42.1100917,6.16313478 44.6788991,6.16313478 L44.6788991,6.16313478 Z M25.4587156,10.1348739 C25.4587156,14.7457435 26.9266055,16.4805261 31.0550459,16.4805261 C35.1834862,16.4805261 36.6513761,14.6996348 36.6513761,10.1348739 C36.6513761,5.56965652 35.1834862,3.78922174 31.0550459,3.78922174 C26.9724771,3.74356957 25.4587156,5.47835217 25.4587156,10.1348739 L25.4587156,10.1348739 Z M33.5779817,10.1348739 C33.5779817,13.1479174 33.0733945,14.0148522 31.1009174,14.0148522 C29.1284404,14.0148522 28.6238532,13.2392217 28.6238532,10.1348739 C28.6238532,7.03052609 29.1284404,6.25443913 31.1009174,6.25443913 C33.0275229,6.25443913 33.5779817,7.12183043 33.5779817,10.1348739 L33.5779817,10.1348739 Z M24.5412844,16.2522652 C23.3944954,16.2974609 21.3761468,16.3435696 20.3669725,16.3435696 C17.4311927,16.3435696 14.6788991,16.1609609 14.6788991,12.3718304 L14.6788991,0.0913956522 L18.0275229,0.0913956522 L18.0275229,11.458787 C18.0275229,13.2392217 18.3486239,13.6500913 20.3211009,13.6500913 L24.587156,13.6500913 L24.587156,16.2522652 L24.5412844,16.2522652 Z" id="Fill-4" fill="#14254B" mask="url(#mask-4)"></path>
                </g>
            </g>
        </g>
    </g>
</svg>